<?xml version="1.0" encoding="utf-8"?>
<!-- Generator: Adobe Illustrator 16.0.0, SVG Export Plug-In . SVG Version: 6.00 Build 0)  -->
<!DOCTYPE svg PUBLIC "-//W3C//DTD SVG 1.1//EN" "http://www.w3.org/Graphics/SVG/1.1/DTD/svg11.dtd">
<svg version="1.1" id="Layer_1" xmlns="http://www.w3.org/2000/svg" xmlns:xlink="http://www.w3.org/1999/xlink" x="0px" y="0px"
	 width="512px" height="512px" viewBox="0 0 512 512" enable-background="new 0 0 512 512" xml:space="preserve">
<g>
	<g>
		<path fill-rule="evenodd" clip-rule="evenodd" fill="#E9E9EB" d="M281.642,152.708c-3.926,4.439-9.382,7.185-16.402,8.292v10
			h-7.772v-9.893c-6.168-0.732-11.161-3.014-15.013-6.829c-3.886-3.816-6.31-9.235-7.417-16.206l13.94-1.657
			c0.57,2.852,1.678,5.312,3.248,7.363c1.57,2.067,3.315,3.564,5.241,4.492l-0.04-22.409c-6.986-1.997-12.081-5.01-15.329-9.074
			c-3.243-4.047-4.886-8.95-4.886-14.745c0-5.847,1.858-10.786,5.529-14.742c3.672-3.994,8.557-6.294,14.651-6.899v-5.278h7.813
			v5.278c5.704,0.658,10.268,2.621,13.652,5.812c3.354,3.191,5.528,7.47,6.456,12.835l-13.62,1.766
			c-0.857-4.207-3.031-7.061-6.488-8.54l0.034,20.913c8.591,2.298,14.476,5.312,17.61,8.984c3.103,3.69,4.672,8.432,4.672,14.208
			C287.521,142.851,285.595,148.27,281.642,152.708"/>
	</g>
	<g>
		<rect x="301.784" y="83.7" fill-rule="evenodd" clip-rule="evenodd" fill="#E9E9EB" width="83.897" height="11.409"/>
	</g>
	<g>
		<rect x="301.784" y="119.069" fill-rule="evenodd" clip-rule="evenodd" fill="#E9E9EB" width="83.897" height="11.409"/>
	</g>
	<g>
		<rect x="301.784" y="153.261" fill-rule="evenodd" clip-rule="evenodd" fill="#E9E9EB" width="83.897" height="11.41"/>
	</g>
	<g>
		<rect x="167.76" y="187.526" fill-rule="evenodd" clip-rule="evenodd" fill="#E9E9EB" width="217.921" height="11.41"/>
	</g>
	<g>
		<rect x="167.76" y="224.607" fill-rule="evenodd" clip-rule="evenodd" fill="#E9E9EB" width="217.921" height="11.41"/>
	</g>
	<g>
		<path fill-rule="evenodd" clip-rule="evenodd" fill="#E4EFF8" d="M124.722,104.217v182.605c9.95-2.994,20.502-4.598,31.415-4.598
			c54.941,0,100.438,40.735,107.82,93.665l157.411-92.597V12.014H215.891l0.18,92.203H124.722z M421.368,342.534L257.682,438.82
			l-4.101,0.873c-0.502,0.98-1,1.979-1.497,2.942h169.284V342.534z"/>
	</g>
	<g>
		<path fill="#395A7C" d="M120.801,286.823V104.415v-0.197c0-2.175,1.746-3.957,3.921-3.957h87.428l-0.215-87.924v-0.323
			c0-2.174,1.781-3.939,3.955-3.939h205.302h0.176c2.176,0,3.959,1.765,3.959,3.939v271.278h-0.034c0,1.356-0.677,2.657-1.925,3.389
			l-157.13,92.417c-0.502,0.374-1.106,0.605-1.75,0.695c-2.137,0.286-4.135-1.212-4.457-3.369
			c-3.564-25.654-16.47-48.383-35.116-64.588c-18.401-15.974-42.468-25.671-68.778-25.671c-5.207,0-10.342,0.373-15.296,1.104
			h-0.073c-4.992,0.731-9.913,1.835-14.69,3.245c-0.425,0.161-0.892,0.248-1.355,0.248
			C122.547,290.762,120.801,288.98,120.801,286.823 M128.681,108.157v173.478c3.603-0.89,7.24-1.621,10.947-2.175h0.073
			c5.383-0.766,10.839-1.175,16.437-1.175c28.27,0,54.155,10.41,73.947,27.614c18.645,16.222,31.946,38.471,36.793,63.715
			l150.571-88.551V15.954H219.815l0.215,88.263c0,2.158-1.785,3.922-3.959,3.922v0.017H128.681z M256.253,435.093l162.834-95.767
			c0.643-0.465,1.429-0.748,2.281-0.748c2.176,0,3.959,1.782,3.959,3.957v99.904v0.197c0,2.175-1.783,3.941-3.959,3.941H252.084l0,0
			c-0.645,0-1.249-0.145-1.819-0.447c-1.925-0.98-2.677-3.369-1.711-5.295l1.531-2.942c0.537-1.015,1.498-1.799,2.677-2.05
			L256.253,435.093z M417.448,349.397l-151.819,89.296h151.819V349.397z"/>
	</g>
	<g>
		<path fill-rule="evenodd" clip-rule="evenodd" fill="#E9E9EB" d="M271.796,145.292c1.712-1.978,2.571-4.295,2.571-6.988
			c0-2.389-0.713-4.456-2.142-6.167c-1.424-1.749-3.745-3.05-6.986-3.994v21C267.949,148.556,270.126,147.271,271.796,145.292"/>
	</g>
	<g>
		<path fill-rule="evenodd" clip-rule="evenodd" fill="#E9E9EB" d="M257.427,110.599l-0.034-18.557
			c-2.066,0.748-3.744,1.98-4.953,3.708c-1.214,1.711-1.818,3.601-1.818,5.668c0,1.89,0.536,3.638,1.638,5.259
			C253.4,108.301,255.111,109.62,257.427,110.599"/>
	</g>
	<g>
		<rect x="167.76" y="260.527" fill-rule="evenodd" clip-rule="evenodd" fill="#E9E9EB" width="217.921" height="11.409"/>
	</g>
	<g opacity="0.25">
		<g>
			<defs>
				<rect id="SVGID_13_" x="124.722" y="272.454" width="148.288" height="170.181"/>
			</defs>
			<clipPath id="SVGID_2_">
				<use xlink:href="#SVGID_13_"  overflow="visible"/>
			</clipPath>
			<g clip-path="url(#SVGID_2_)">
				<path fill-rule="evenodd" clip-rule="evenodd" fill="#272323" d="M263.455,442.635c1.496-3.137,2.852-6.348,4.064-9.609
					l-9.838,5.795l-4.101,0.873c-0.502,0.98-1,1.979-1.497,2.942H263.455z M257.11,328.931
					c-26.958-43.568-80.154-66.316-132.208-52.377l-0.18,0.054v10.215c9.95-2.994,20.502-4.598,31.375-4.598
					c54.98,0,100.477,40.735,107.859,93.665l9.053-5.332c-0.569-3.245-1.282-6.49-2.174-9.732
					C267.769,349.29,263.099,338.595,257.11,328.931z"/>
			</g>
			<g clip-path="url(#SVGID_2_)">
				<path fill="#131309" d="M265.951,446.576h-20.464l5.134-9.735l2.14-0.999l3.458-0.749l18.859-11.087l-3.886,10.392
					c-1.248,3.37-2.638,6.685-4.169,9.93L265.951,446.576z M260.851,382.27l-0.819-5.829c-7.167-51.467-51.84-90.276-103.934-90.276
					c-10.303,0-20.464,1.497-30.235,4.439l-5.061,1.531v-18.36l2.672-0.91c53.664-14.369,109.107,8.896,136.988,53.998
					c6.274,10.145,11.053,21.232,14.188,32.946c0.892,3.35,1.643,6.703,2.248,10.054l0.501,2.692L260.851,382.27z M156.098,278.285
					c54.054,0,100.656,38.863,110.779,91.293l1.75-1.017c-0.463-2.229-1-4.474-1.604-6.702
					c-2.925-10.983-7.382-21.359-13.267-30.842c-20.82-33.694-58.364-54.605-97.942-54.605c-9.093,0-18.221,1.088-27.134,3.245
					v1.997C137.593,279.407,146.795,278.285,156.098,278.285z"/>
			</g>
		</g>
	</g>
	<g>
		<path fill="#395A7C" d="M259.036,149.358v-22.463c-6.991-1.997-12.126-5.027-15.402-9.091c-3.283-4.066-4.925-8.986-4.925-14.781
			c0-5.863,1.858-10.785,5.563-14.759c3.711-3.994,8.63-6.294,14.764-6.899v-5.313h7.772v5.313
			c5.705,0.678,10.229,2.621,13.584,5.813c3.35,3.208,5.491,7.487,6.416,12.853l-13.549,1.765c-0.819-4.208-2.96-7.078-6.451-8.574
			v20.963c8.593,2.319,14.437,5.332,17.538,9.038c3.106,3.691,4.673,8.452,4.673,14.228c0,6.471-1.962,11.926-5.881,16.366
			c-3.926,4.439-9.344,7.148-16.33,8.147v10.037h-7.772v-9.771c-6.172-0.748-11.199-3.048-15.047-6.917
			c-3.886-3.849-6.348-9.305-7.416-16.348l14.008-1.515c0.575,2.87,1.644,5.329,3.213,7.417
			C255.36,146.932,257.11,148.429,259.036,149.358z M259.036,93.059c-2.106,0.711-3.783,1.926-5.032,3.638
			c-1.244,1.728-1.886,3.618-1.886,5.685c0,1.909,0.569,3.654,1.711,5.295c1.141,1.622,2.886,2.942,5.207,3.94V93.059z
			 M266.809,150.106c2.673-0.5,4.885-1.731,6.559-3.727c1.677-1.978,2.495-4.313,2.495-6.988c0-2.406-0.677-4.456-2.101-6.204
			c-1.429-1.729-3.71-3.067-6.953-3.993V150.106z"/>
	</g>
	<g>
		<path fill-rule="evenodd" clip-rule="evenodd" fill="#395A7C" d="M301.784,153.261h83.897v11.41h-83.897V153.261z M167.76,187.526
			h217.921v11.41H167.76V187.526z M167.76,260.527h217.921v11.409H167.76V260.527z M167.76,224.607h217.921v11.41H167.76V224.607z
			 M301.784,119.069h83.897v11.409h-83.897V119.069z M301.784,83.7h83.897v11.409h-83.897V83.7z"/>
	</g>
	<g>
		<polygon fill-rule="evenodd" clip-rule="evenodd" fill="#D4D8DD" points="215.891,12.014 124.722,104.217 216.071,104.217 		"/>
	</g>
	<g>
		<path fill="#395A7C" d="M121.942,101.455l91.134-92.186l6.7-1.194l0.039,3.939l0.215,92.203v3.939h-3.959h-91.349h-3.169
			L121.942,101.455z M211.97,21.551l-77.798,78.709h77.979L211.97,21.551z"/>
	</g>
	<g>
		<path fill-rule="evenodd" clip-rule="evenodd" fill="#F4E597" d="M124.722,286.823c-44.815,13.46-77.478,55.051-77.478,104.29
			c0,60.131,48.744,108.873,108.893,108.873c41.464,0,77.545-23.212,95.947-57.351c0.496-0.962,0.995-1.961,1.497-2.942
			l-17.153,3.708c-17.075,26.205-46.672,43.517-80.291,43.517c-52.947,0-95.839-42.893-95.839-95.805
			c0-52.928,42.892-95.82,95.839-95.82c50.236,0,91.451,38.648,95.484,87.853l12.336-7.255
			c-7.383-52.93-52.879-93.665-107.82-93.665C145.225,282.225,134.672,283.829,124.722,286.823z"/>
	</g>
	<g>
		<path fill="#395A7C" d="M156.137,503.925c-62.221,0-112.847-50.611-112.847-112.812c0-49.434,33.014-93.877,80.291-108.069
			c10.484-3.154,21.43-4.759,32.557-4.759c55.975,0,104.002,41.715,111.705,97.052l0.356,2.621l-20,11.765l-0.502-6.258
			c-3.886-47.223-44.102-84.233-91.559-84.233c-50.665,0-91.886,41.215-91.886,91.881c0,50.648,41.221,91.866,91.886,91.866
			c31.162,0,59.968-15.601,76.975-41.734l0.892-1.356l26.847-5.792l-5.31,10.41C235.822,481.16,197.708,503.925,156.137,503.925z
			 M156.137,286.165c-10.342,0-20.503,1.497-30.274,4.439c-43.961,13.191-74.693,54.532-74.693,100.509
			c0,57.849,47.101,104.933,104.968,104.933c36.9,0,70.846-19.289,89.847-50.666l-7.167,1.534
			c-18.572,27.561-49.378,43.944-82.68,43.944c-55.019,0-99.765-44.748-99.765-99.745c0-55.015,44.746-99.76,99.765-99.76
			c49.451,0,91.666,36.99,98.692,85.32l4.813-2.833C251.367,323.672,207.299,286.165,156.137,286.165z"/>
	</g>
	<g>
		<path fill-rule="evenodd" clip-rule="evenodd" fill="#D1C476" d="M156.137,291.155c-55.195,0-99.94,44.748-99.94,99.958
			c0,55.194,44.746,99.94,99.94,99.94c35.081,0,65.921-18.058,83.752-45.387l-60.757,13.101l55.945-63.803l20.645-12.158
			C251.547,331.48,208.547,291.155,156.137,291.155"/>
	</g>
	<g>
		<path fill="#395A7C" d="M157.599,425.538l-9.664-32.125c-10.874,0.143-19.503-1.979-25.92-6.382
			c-6.422-4.386-10.878-10.731-13.375-19.004c-2.531-8.378-1.96-16.205,1.604-23.479c3.57-7.292,9.63-12.675,18.153-16.206
			l-2.248-7.557l11.089-3.353l2.282,7.578c8.376-1.446,15.69-0.624,21.859,2.513c6.201,3.118,11.121,8.305,14.725,15.581
			l-18.65,8.343c-2.994-5.668-7.275-8.842-12.833-9.5l8.982,29.966c13.267-0.355,22.892,1.426,28.918,5.383
			c6.027,3.959,10.303,10.074,12.799,18.363c2.779,9.235,2.283,17.882-1.389,25.886c-3.671,8.021-10.302,14.226-19.825,18.648
			l4.314,14.332l-11.126,3.353l-4.204-13.976c-9.167,1.604-17.329,0.445-24.497-3.406c-7.201-3.869-13.047-10.571-17.578-20.198
			l19.323-8.148c2.068,3.833,4.637,6.917,7.772,9.199C151.285,423.629,154.386,425.021,157.599,425.538z M133.424,345.065
			c-2.711,1.909-4.602,4.386-5.636,7.382c-1.068,2.977-1.141,5.953-0.248,8.913c0.818,2.709,2.389,4.974,4.705,6.809
			c2.321,1.856,5.383,2.997,9.127,3.39L133.424,345.065z M169.009,423.257c3.633-1.855,6.202-4.564,7.733-8.131
			c1.569-3.564,1.75-7.239,0.609-11.087c-1.033-3.406-2.925-6.061-5.705-7.934c-2.745-1.872-6.597-2.798-11.624-2.746
			L169.009,423.257z"/>
	</g>
	<g>
		<path fill-rule="evenodd" clip-rule="evenodd" fill="#F190A0" d="M231.795,394.803c0,0,25.887,8.503,25.887,44.017l163.687-96.286
			l30.987-18.219c17.04-10.037,11.516-19.432,11.516-19.432l-7.416-12.604l-7.416-12.587c0,0-5.529-9.43-22.604,0.607l-5.066,2.994
			L263.957,375.89l-12.336,7.255L231.795,394.803z"/>
	</g>
	<g>
		<path fill-rule="evenodd" clip-rule="evenodd" fill="#E9E9EB" d="M257.682,438.82c0-35.514-25.887-44.017-25.887-44.017
			l-53.624,61.166l58.256-12.567l17.153-3.708L257.682,438.82z"/>
	</g>
	<g>
		<path fill-rule="evenodd" clip-rule="evenodd" fill="#BADCBE" d="M338.436,332.088c12.59,12.39,21.112,27.114,25.388,44.299
			l14.298-8.433c-4.136-17.239-12.513-32.052-25.028-44.497L338.436,332.088z M321.286,401.418
			c-4.028-17.648-12.12-32.643-24.175-45.051l-14.793,8.735c12.298,12.249,20.645,27.063,24.921,44.551L321.286,401.418z"/>
	</g>
	<g>
		<path fill="#395A7C" d="M304.674,415.733l-1.248-5.135c-4.065-16.614-12.126-30.984-23.89-42.696l-3.639-3.603l21.892-12.907
			l2.176,2.228c12.517,12.91,21,28.703,25.174,46.923l0.644,2.816L304.674,415.733z M288.594,365.978
			c9.766,10.786,16.861,23.406,21.108,37.668l7.055-4.154c-3.778-14.564-10.586-27.363-20.356-38.132L288.594,365.978z
			 M361.253,382.467l-1.281-5.133c-4.028-16.259-12.228-30.538-24.315-42.43l-3.639-3.601l21.679-12.782l2.174,2.139
			c13.015,12.962,21.786,28.56,26.066,46.369l0.679,2.835L361.253,382.467z M344.749,332.943
			c10.021,10.873,17.222,23.443,21.498,37.437l7.309-4.315c-3.887-14.242-10.979-26.865-21.142-37.631L344.749,332.943z"/>
	</g>
	<g opacity="0.25">
		<g>
			<defs>
				<rect id="SVGID_15_" x="178.171" y="287.732" width="286.553" height="168.236"/>
			</defs>
			<clipPath id="SVGID_4_">
				<use xlink:href="#SVGID_15_"  overflow="visible"/>
			</clipPath>
			<g clip-path="url(#SVGID_4_)">
				<path fill-rule="evenodd" clip-rule="evenodd" fill="#272323" d="M178.171,455.969l73.766-42.608l0.571,1.053l0.072,0.142
					c1.819,2.781,7.986,8.879,24.887,0.446c21.109-10.554,175.741-101.455,175.741-101.455s9.342-9.413,0.536-25.815l2.711,4.546
					l7.416,12.604c0,0,5.524,9.395-11.516,19.432l-30.987,18.202L257.682,438.82c-6.778,3.974-11.518,4.545-14.409,3.101
					l-6.846,1.48L178.171,455.969z"/>
			</g>
			<g clip-path="url(#SVGID_4_)">
				<path d="M178.171,459.908c-1.604,0-3.101-0.979-3.672-2.513c-0.716-1.819,0-3.869,1.673-4.85l73.806-42.607
					c0.926-0.517,1.999-0.622,3.033-0.373c1.033,0.285,1.887,0.979,2.389,1.926l0.571,1.05c0.819,1.212,2.673,2.815,6.597,2.815
					c3.565,0,7.987-1.299,13.117-3.885c20.146-10.054,164.905-95.072,174.96-101.008c1.247-1.534,6.095-8.789-0.396-20.859
					c-0.994-1.889-0.316-4.242,1.536-5.295c1.854-1.051,4.243-0.463,5.35,1.41l10.128,17.167
					c0.317,0.517,7.309,12.923-12.912,24.833L259.676,442.223c-6.666,3.923-12.264,5.225-16.759,3.799L178.99,459.82
					C178.702,459.891,178.419,459.908,178.171,459.908z M250.763,418.585l-48.847,28.221l40.504-8.734
					c0.892-0.232,1.819-0.074,2.604,0.319c1.355,0.624,4.027,0.892,10.658-2.977L450.354,320.91
					c10.522-6.205,10.698-11.392,10.308-13.335c-1.462,5.456-4.422,8.503-4.67,8.754c-0.215,0.232-0.504,0.444-0.786,0.622
					c-6.309,3.708-154.987,91.081-175.993,101.581c-6.237,3.121-11.873,4.708-16.646,4.708
					C256.54,423.239,252.864,420.814,250.763,418.585z"/>
			</g>
		</g>
	</g>
	<g>
		<path fill="#395A7C" d="M452.321,277.5l-3.282,2.191l-3.282,2.157 M428.43,283.685L428.43,283.685l-1.995-3.387l-1.96-3.369
			 M253.722,438.82c0-32.624-22.96-40.218-23-40.238l-3.921-4.047l2.994-3.118l19.825-11.661l12.337-7.255l157.416-92.594
			l5.062-2.978h0.039c20.356-11.997,27.806,0.535,27.847,0.571l0.106,0.194l7.416,12.605l7.417,12.586l0.175,0.339l0.143,0.427
			c0,0.019,6.883,12.211-13.264,24.05l-30.946,18.202l-163.692,96.303l-5.954,0.91V438.82z M239.889,394.589
			c7.772,4.993,19.396,15.956,21.43,37.527l158.089-92.968l30.947-18.204c11.343-6.685,10.698-12.319,10.059-14.171l-7.347-12.497
			l-7.31-12.427v0.017c0-0.017-3.597-6.255-17.327,1.819l-5.062,2.996l0,0l-157.417,92.595l-12.336,7.255L239.889,394.589z"/>
	</g>
	<g>
		<path fill="#395A7C" d="M232.863,391.008c0.073,0.034,28.772,9.43,28.772,47.813v3.172l-3.136,0.677l-4.101,0.875l-17.148,3.706
			L178.99,459.82l-11.624,2.497l7.845-8.932l53.625-61.166l2.423-1.677L232.863,391.008z M253.649,435.646
			c-1.141-24.121-15.256-33.41-20.786-36.119l-43.893,50.078l46.638-10.054l17.152-3.71L253.649,435.646z"/>
	</g>
</g>
</svg>
