<svg xmlns="http://www.w3.org/2000/svg" viewBox="0 0 64 64"><defs><style>.cls-1{fill:#cfd8dd;}.cls-2{fill:#ebeff1;}.cls-3{fill:#00cde2;}.cls-4{fill:#ff7f00;}.cls-5{fill:#ffda00;}</style></defs><title>Graph Pie</title><g id="Layer_2" data-name="Layer 2"><g id="Layer_1-2" data-name="Layer 1"><rect class="cls-1" y="4" width="64" height="60" rx="4" ry="4"/><rect class="cls-2" width="64" height="60" rx="4" ry="4"/><path class="cls-3" d="M54,30a21.87,21.87,0,0,1-5,13.93,20.59,20.59,0,0,1-1.47,1.63A22,22,0,1,1,54,30Z"/><path class="cls-4" d="M54,30a21.87,21.87,0,0,1-5,13.93,20.59,20.59,0,0,1-1.47,1.63L32,30V8A22,22,0,0,1,54,30Z"/><path class="cls-5" d="M32,30,49,43.93a20.59,20.59,0,0,1-1.47,1.63A21.93,21.93,0,0,1,32,52Z"/></g></g></svg>