<?xml version="1.0" ?><!DOCTYPE svg  PUBLIC '-//W3C//DTD SVG 1.1//EN'  'http://www.w3.org/Graphics/SVG/1.1/DTD/svg11.dtd'><svg enable-background="new 0 0 64 64" height="64px" version="1.1" viewBox="0 0 64 64" width="64px" xml:space="preserve" xmlns="http://www.w3.org/2000/svg" xmlns:xlink="http://www.w3.org/1999/xlink"><g id="Layer_2"><g><line fill="none" stroke="#231F20" stroke-linecap="round" stroke-linejoin="round" stroke-miterlimit="10" stroke-width="2" x1="27.167" x2="27.167" y1="13.489" y2="17.67"/><line fill="none" stroke="#231F20" stroke-linecap="round" stroke-linejoin="round" stroke-miterlimit="10" stroke-width="2" x1="29.258" x2="25.076" y1="15.579" y2="15.579"/></g><g><line fill="none" stroke="#231F20" stroke-linecap="round" stroke-linejoin="round" stroke-miterlimit="10" stroke-width="2" x1="36.081" x2="36.081" y1="43.856" y2="48.038"/><line fill="none" stroke="#231F20" stroke-linecap="round" stroke-linejoin="round" stroke-miterlimit="10" stroke-width="2" x1="38.172" x2="33.99" y1="45.947" y2="45.947"/></g><g><line fill="none" stroke="#231F20" stroke-linecap="round" stroke-linejoin="round" stroke-miterlimit="10" x1="23.944" x2="23.944" y1="21.208" y2="23.542"/><line fill="none" stroke="#231F20" stroke-linecap="round" stroke-linejoin="round" stroke-miterlimit="10" x1="25.111" x2="22.778" y1="22.375" y2="22.375"/></g><g><line fill="none" stroke="#231F20" stroke-linecap="round" stroke-linejoin="round" stroke-miterlimit="10" x1="40.785" x2="40.785" y1="37.862" y2="40.195"/><line fill="none" stroke="#231F20" stroke-linecap="round" stroke-linejoin="round" stroke-miterlimit="10" x1="41.952" x2="39.619" y1="39.028" y2="39.028"/></g></g><g id="Layer_1"><g><rect fill="none" height="37.512" stroke="#231F20" stroke-linecap="round" stroke-linejoin="round" stroke-miterlimit="10" stroke-width="2" transform="matrix(0.7071 0.7071 -0.7071 0.7071 32.2562 -12.6363)" width="10.682" x="26.041" y="13.862"/><polygon fill="none" points="    18.086,45.914 21.854,49.681 16.707,51.06 11.561,52.439 12.94,47.293 14.319,42.146   " stroke="#231F20" stroke-linecap="round" stroke-linejoin="round" stroke-miterlimit="10" stroke-width="2"/><rect fill="none" height="5.28" stroke="#231F20" stroke-linecap="round" stroke-linejoin="round" stroke-miterlimit="10" stroke-width="2" transform="matrix(0.7071 0.7071 -0.7071 0.7071 25.9895 -27.7655)" width="10.682" x="41.17" y="14.85"/></g></g><g id="Layer_3"/></svg>